# xmcd
#
# Track frame offsets:
#	150
#	16345
#	29176
#	40337
#	57780
#	70917
#	85193
#	102059
#	116564
#	131990
#	146070
#	156636
#	172627
#	181869
#	198969
#	215040
#	234821
#	248261
#	259653
#	279299
#
# Disc length: 3920 seconds
#
# Revision: 1
# Processed by: cddbd v1.5.2PL0 Copyright (c) Steve Scherf et al.
# Submitted via: EasyCDDAExtractor 12.0.1.1
#
DISCID=140f4e14
DTITLE=Alison Krauss - Lovely Runs Both Ways
DYEAR=2005
DGENRE=Country
TTITLE0=Gravity
TTITLE1=Restless
TTITLE2=Rain Please Go Away
TTITLE3=Goodbye Is All We Have
TTITLE4=Unionhouse Branch
TTITLE5=Wouldn't Be So Bad
TTITLE6=Pastures Of Plenty
TTITLE7=Crazy As Me
TTITLE8=Borderline
TTITLE9=My Poor Old Heart
TTITLE10=This Sad Song
TTITLE11=Doesn't Have To Be This Way
TTITLE12=I Don't Have To Be This Way
TTITLE13=If I Didn't Know Any Better
TTITLE14=A Living Prayer
TTITLE15=When You Say Nothing At All
TTITLE16=The Scarlet Tide
TTITLE17=You Will Be My Aim True Love
TTITLE18=Whiskey Lullaby
TTITLE19=Down To The River To Pray
EXTD=
EXTT0=
EXTT1=
EXTT2=
EXTT3=
EXTT4=
EXTT5=
EXTT6=
EXTT7=
EXTT8=
EXTT9=
EXTT10=
EXTT11=
EXTT12=
EXTT13=
EXTT14=
EXTT15=
EXTT16=
EXTT17=
EXTT18=
EXTT19=
PLAYORDER=
